<svg xmlns="http://www.w3.org/2000/svg" version="1.1" xmlns:xlink="http://www.w3.org/1999/xlink" xmlns:svgjs="http://svgjs.com/svgjs" width="1440" height="1080" preserveAspectRatio="none" viewBox="0 0 1440 1080"><g mask="url(&quot;#SvgjsMask1204&quot;)" fill="none"><rect width="1440" height="1080" x="0" y="0" fill="rgba(227, 227, 227, 1)"></rect><path d="M 0,32 C 144,80.6 432,263.6 720,275 C 1008,286.4 1296,126.2 1440,89L1440 1080L0 1080z" fill="rgba(236, 236, 236, 1)"></path><path d="M 0,600 C 144,568.2 432,444.8 720,441 C 1008,437.2 1296,553 1440,581L1440 1080L0 1080z" fill="rgba(226, 226, 226, 1)"></path><path d="M 0,783 C 144,829.8 432,1007 720,1017 C 1008,1027 1296,869.8 1440,833L1440 1080L0 1080z" fill="rgba(211, 211, 211, 1)"></path></g><defs><mask id="SvgjsMask1204"><rect width="1440" height="1080" fill="#ffffff"></rect></mask></defs></svg>